<?xml version="1.0" standalone="no"?><!DOCTYPE svg PUBLIC "-//W3C//DTD SVG 1.1//EN" "http://www.w3.org/Graphics/SVG/1.1/DTD/svg11.dtd"><svg t="1605686223601" class="icon" viewBox="0 0 1024 1024" version="1.1" xmlns="http://www.w3.org/2000/svg" p-id="3793" xmlns:xlink="http://www.w3.org/1999/xlink" width="200" height="200"><defs><style type="text/css"></style></defs><path d="M1009.985057 210.031399l-195.797259-195.997256c-15.419784-15.419784-31.999552-13.999804-46.199353-13.999803v255.996415h255.996415c0-15.059789 1.279982-30.69957-13.999803-45.999356z m-305.995715 61.999132V0.03434H304.014943c-26.599628 0-47.999328 21.3997-47.999328 47.999327V266.010615c36.599487-9.99986 39.159452-9.99986 52.899259-9.99986 32.459545 0 64.199101 13.339813 87.058781 36.599487 17.439756 19.179731 8.819876 13.959805 36.559488 21.519699 42.13941 11.499839 75.278946 45.059369 86.458789 87.598773 6.219913 26.39963 1.199983 17.319757 21.499699 37.979468 30.499573 31.019566 42.519405 76.518928 31.399561 118.718338-7.499895 26.459629-7.419896 16.019776 0 44.23938 11.139844 42.219409-0.899987 87.698772-31.379561 118.738338-19.27973 18.719738-14.079803 9.759863-21.499699 37.979468-9.779863 37.179479-36.319491 67.499055-70.999006 82.238848V1024h527.972607c26.599628 0 47.999328-21.3997 47.999327-47.999328V320.029858h-271.996191c-26.39963 0-47.999328-21.599698-47.999327-47.999327zM494.85227 676.564865c14.799793-15.059789 20.579712-36.999482 15.159788-57.579193-10.859848-41.299422-10.879848-35.479503 0-76.838924 5.419924-20.559712-0.359995-42.519405-15.159788-57.579194-29.719584-30.239577-26.859624-25.219647-37.739471-66.539068-5.419924-20.559712-21.199703-36.639487-41.41942-42.13941-40.559432-11.059845-35.6795-8.199885-65.379084-38.419462-14.799793-15.059789-36.359491-20.939707-56.559208-15.419784-40.639431 11.079845-34.919511 11.059845-75.498943 0-20.199717-5.519923-41.759415 0.379995-56.559208 15.419784-29.819582 30.359575-24.99965 27.399616-65.379085 38.419462-20.219717 5.519923-35.999496 21.579698-41.41942 42.13941-10.919847 41.479419-7.999888 36.259492-37.739471 66.539068-14.799793 15.059789-20.579712 36.999482-15.159788 57.579194 10.899847 41.41942 10.839848 35.579502 0 76.818924-5.419924 20.559712 0.359995 42.519405 15.159788 57.579194 29.699584 30.219577 26.859624 25.219647 37.739471 66.539068 5.419924 20.559712 21.199703 36.639487 41.41942 42.13941 28.619599 7.799891 23.039677 5.939917 31.679557 9.99986V1024l127.998207-63.999104 127.998208 63.999104V795.243203c8.619879-4.039943 3.039957-2.199969 31.679556-9.999859 20.219717-5.519923 35.999496-21.579698 41.41942-42.13941 10.939847-41.479419 8.019888-36.259492 37.759471-66.539069zM256.015615 704.024481c-70.67901 0-127.998208-57.299198-127.998207-127.998208s57.319197-127.998208 127.998207-127.998207 127.998208 57.299198 127.998208 127.998207-57.319197 127.998208-127.998208 127.998208z" p-id="3794"></path></svg>