<?xml version="1.0" standalone="no"?><!DOCTYPE svg PUBLIC "-//W3C//DTD SVG 1.1//EN" "http://www.w3.org/Graphics/SVG/1.1/DTD/svg11.dtd"><svg t="1605685479065" class="icon" viewBox="0 0 1024 1024" version="1.1" xmlns="http://www.w3.org/2000/svg" p-id="4177" xmlns:xlink="http://www.w3.org/1999/xlink" width="200" height="200"><defs><style type="text/css"></style></defs><path d="M974.8 631.4l-85.2-49.2c8.6-46.4 8.6-94 0-140.4l85.2-49.2c9.8-5.6 14.2-17.2 11-28-22.2-71.2-60-135.6-109.4-189.2-7.6-8.2-20-10.2-29.6-4.6L761.6 220c-35.8-30.8-77-54.6-121.6-70.2V51.6c0-11.2-7.8-21-18.8-23.4-73.4-16.4-148.6-15.6-218.4 0-11 2.4-18.8 12.2-18.8 23.4V150c-44.4 15.8-85.6 39.6-121.6 70.2L177.4 171c-9.8-5.6-22-3.8-29.6 4.6-49.4 53.4-87.2 117.8-109.4 189.2-3.4 10.8 1.2 22.4 11 28L134.6 442c-8.6 46.4-8.6 94 0 140.4l-85.2 49.2c-9.8 5.6-14.2 17.2-11 28 22.2 71.2 60 135.6 109.4 189.2 7.6 8.2 20 10.2 29.6 4.6l85.2-49.2c35.8 30.8 77 54.6 121.6 70.2v98.4c0 11.2 7.8 21 18.8 23.4 73.4 16.4 148.6 15.6 218.4 0 11-2.4 18.8-12.2 18.8-23.4v-98.4c44.4-15.8 85.6-39.6 121.6-70.2l85.2 49.2c9.8 5.6 22 3.8 29.6-4.6 49.4-53.4 87.2-117.8 109.4-189.2 3-11-1.4-22.6-11.2-28.2zM512 672c-88.2 0-160-71.8-160-160s71.8-160 160-160 160 71.8 160 160-71.8 160-160 160z" p-id="4178"></path></svg>