<?xml version="1.0" standalone="no"?><!DOCTYPE svg PUBLIC "-//W3C//DTD SVG 1.1//EN" "http://www.w3.org/Graphics/SVG/1.1/DTD/svg11.dtd"><svg t="1605677533060" class="icon" viewBox="0 0 1024 1024" version="1.1" xmlns="http://www.w3.org/2000/svg" p-id="4039" xmlns:xlink="http://www.w3.org/1999/xlink" width="200" height="200"><defs><style type="text/css"></style></defs><path d="M790.528 30.72H194.56C135.168 30.72 86.016 77.824 86.016 136.192v727.04c0 57.344 49.152 105.472 108.544 105.472h322.56c25.6 0-13.312-60.416-31.744-60.416H242.688c-65.536 0-91.136-21.504-91.136-89.088V180.224c0-57.344 20.48-89.088 80.896-89.088h520.192c58.368 0 80.896 36.864 80.896 89.088V522.24c0 23.552 64.512 33.792 64.512 12.288v-399.36C899.072 77.824 849.92 30.72 790.528 30.72z m0 0" p-id="4040"></path><path d="M723.968 267.264H274.432c-8.192 0-15.36-7.168-15.36-15.36v-43.008c0-8.192 7.168-15.36 15.36-15.36h435.2c8.192 0 15.36 7.168 15.36 15.36V266.24c1.024 0 0 1.024-1.024 1.024zM595.968 459.776H274.432c-8.192 0-15.36-7.168-15.36-15.36v-46.08c0-8.192 7.168-15.36 15.36-15.36h307.2c8.192 0 15.36 7.168 15.36 15.36v60.416s0 1.024-1.024 1.024z m-61.44 181.248H274.432c-8.192 0-15.36-7.168-15.36-15.36v-46.08c0-8.192 7.168-15.36 15.36-15.36h245.76c8.192 0 15.36 7.168 15.36 15.36v60.416s0 1.024-1.024 1.024z m0 0M688.128 612.352l-90.112 175.104c-2.048 4.096-6.144 8.192-11.264 10.24l-46.08 17.408c-8.192 3.072-12.288 11.264-9.216 19.456l32.768 91.136c3.072 8.192 12.288 12.288 20.48 9.216l45.056-17.408c5.12-2.048 11.264-2.048 16.384 1.024l172.032 79.872c12.288 6.144 25.6-6.144 21.504-18.432L716.8 614.4c-4.096-13.312-22.528-14.336-28.672-2.048z m17.408-32.768" p-id="4041"></path><path d="M866.304 886.784c-2.048 0-4.096 0-6.144-1.024-11.264-3.072-18.432-15.36-15.36-26.624 11.264-40.96 8.192-78.848-7.168-109.568-12.288-23.552-31.744-43.008-53.248-53.248-11.264-5.12-16.384-18.432-11.264-28.672 5.12-11.264 18.432-16.384 28.672-11.264 30.72 14.336 58.368 40.96 74.752 73.728 20.48 40.96 24.576 89.088 10.24 140.288-2.048 9.216-11.264 16.384-20.48 16.384z m-91.136-27.648c-3.072 0-6.144-1.024-9.216-2.048-11.264-5.12-15.36-18.432-10.24-28.672 5.12-12.288 7.168-24.576 3.072-33.792-2.048-5.12-5.12-8.192-10.24-10.24-11.264-4.096-17.408-16.384-13.312-27.648 4.096-11.264 16.384-17.408 27.648-13.312 16.384 6.144 28.672 18.432 35.84 34.816 8.192 20.48 7.168 46.08-4.096 69.632-4.096 6.144-11.264 11.264-19.456 11.264z m0 0" p-id="4042"></path><path d="M934.912 931.84c-2.048 0-3.072 0-5.12-1.024-11.264-3.072-19.456-14.336-16.384-26.624 20.48-81.92 11.264-151.552-24.576-205.824-29.696-44.032-69.632-64.512-82.944-68.608-11.264-4.096-18.432-16.384-14.336-27.648 4.096-11.264 16.384-18.432 27.648-14.336 52.224 16.384 190.464 111.616 137.216 326.656-2.048 10.24-11.264 17.408-21.504 17.408z m0 0" p-id="4043"></path></svg>