<?xml version="1.0" standalone="no"?><!DOCTYPE svg PUBLIC "-//W3C//DTD SVG 1.1//EN" "http://www.w3.org/Graphics/SVG/1.1/DTD/svg11.dtd"><svg t="1605685466665" class="icon" viewBox="0 0 1152 1024" version="1.1" xmlns="http://www.w3.org/2000/svg" p-id="4039" xmlns:xlink="http://www.w3.org/1999/xlink" width="225" height="200"><defs><style type="text/css"></style></defs><path d="M1056 0H96C43 0 0 43 0 96v640c0 53 43 96 96 96h384l-32 96h-144c-26.6 0-48 21.4-48 48s21.4 48 48 48h544c26.6 0 48-21.4 48-48s-21.4-48-48-48h-144l-32-96h384c53 0 96-43 96-96V96c0-53-43-96-96-96z m-32 704H128V128h896v576z" p-id="4040"></path></svg>